HIERARCHY
ROOT root
{
	OFFSET	0	13.1	24.9
	CHANNELS 6  Xposition Yposition Zposition Xrotation Yrotation Zrotation
	JOINT spine_1
	{
		OFFSET	0	9.99999	0
		CHANNELS 3  Xrotation Yrotation Zrotation
		JOINT spine_2
		{
			OFFSET	0	112	-10
			CHANNELS 3  Xrotation Yrotation Zrotation
			JOINT spine_3
			{
				OFFSET	0	206.5	19.3
				CHANNELS 3  Xrotation Yrotation Zrotation
				JOINT spine_4
				{
					OFFSET	0	110.4	14.6
					CHANNELS 3  Xrotation Yrotation Zrotation
					JOINT neck_1
					{
						OFFSET	0	71.8	-50.3
						CHANNELS 3  Xrotation Yrotation Zrotation
						JOINT neck_2
						{
							OFFSET	0	86.2	-25.8
							CHANNELS 3  Xrotation Yrotation Zrotation
							JOINT head_ee
							{
								OFFSET	0	179.8	-8.7
								CHANNELS 3  Xrotation Yrotation Zrotation
								End Site
								{
									OFFSET	1	0	0
								}
							}
						}
					}
					JOINT left_clavicle
					{
						OFFSET	-43.2	22.4	-70.8
						CHANNELS 3  Xrotation Yrotation Zrotation
						JOINT left_shoulder
						{
							OFFSET	-93.9	-5.79999	48.7
							CHANNELS 3  Xrotation Yrotation Zrotation
							JOINT left_elbow
							{
								OFFSET	-291.4	-30.8	15.2
								CHANNELS 3  Xrotation Yrotation Zrotation
								JOINT left_lowarm_twist
								{
									OFFSET	-110.7	-3.89999	13.6
									CHANNELS 3  Xrotation Yrotation Zrotation
									JOINT left_hand
									{
										OFFSET	-110.7	-3.89999	13.6
										CHANNELS 3  Xrotation Yrotation Zrotation
										JOINT left_ee
										{
											OFFSET	-80.8	-5.10001	12.1
											CHANNELS 3  Xrotation Yrotation Zrotation
											End Site
											{
												OFFSET	1	0	0
											}
										}
									}
								}
							}
						}
					}
					JOINT right_clavicle
					{
						OFFSET	43.2	22.4	-70.8
						CHANNELS 3  Xrotation Yrotation Zrotation
						JOINT right_shoulder
						{
							OFFSET	93.9	-5.79999	48.7
							CHANNELS 3  Xrotation Yrotation Zrotation
							JOINT right_elbow
							{
								OFFSET	291.4	-30.8	15.2
								CHANNELS 3  Xrotation Yrotation Zrotation
								JOINT right_lowarm_twist
								{
									OFFSET	110.7	-3.89999	13.6
									CHANNELS 3  Xrotation Yrotation Zrotation
									JOINT right_hand
									{
										OFFSET	110.7	-3.89999	13.6
										CHANNELS 3  Xrotation Yrotation Zrotation
										JOINT right_ee
										{
											OFFSET	80.8	-5.10001	12.1
											CHANNELS 3  Xrotation Yrotation Zrotation
											End Site
											{
												OFFSET	1	0	0
											}
										}
									}
								}
							}
						}
					}
				}
			}
		}
	}
	JOINT left_hip
	{
		OFFSET	-82.8	-127.5	0.300001
		CHANNELS 3  Xrotation Yrotation Zrotation
		JOINT left_knee
		{
			OFFSET	-28.2	-396.7	2.2
			CHANNELS 3  Xrotation Yrotation Zrotation
			JOINT left_ankle
			{
				OFFSET	-11.7	-411.3	35.4
				CHANNELS 3  Xrotation Yrotation Zrotation
				JOINT left_toes
				{
					OFFSET	0	-60	-88.6
					CHANNELS 3  Xrotation Yrotation Zrotation
					JOINT left_foot_ee
					{
						OFFSET	-22.5	-16.5	-42.2
						CHANNELS 3  Xrotation Yrotation Zrotation
						End Site
						{
							OFFSET	1	0	0
						}
					}
				}
			}
		}
	}
	JOINT right_hip
	{
		OFFSET	82.8	-127.5	0.300001
		CHANNELS 3  Xrotation Yrotation Zrotation
		JOINT right_knee
		{
			OFFSET	28.2	-396.7	2.2
			CHANNELS 3  Xrotation Yrotation Zrotation
			JOINT right_ankle
			{
				OFFSET	11.7	-411.3	35.4
				CHANNELS 3  Xrotation Yrotation Zrotation
				JOINT right_toes
				{
					OFFSET	0	-60	-88.6
					CHANNELS 3  Xrotation Yrotation Zrotation
					JOINT right_foot_ee
					{
						OFFSET	22.5	-16.5	-42.2
						CHANNELS 3  Xrotation Yrotation Zrotation
						End Site
						{
							OFFSET	1	0	0
						}
					}
				}
			}
		}
	}
}
MOTION
Frames: 15
Frame Time: 0.02
2139.04 677.218 -552.07 90.0 -86.7827 90.0 1.32515 0.0299763 0.311794 1.3252 0.0100754 0.313069 1.32526 -0.0488069 0.309406 1.32513 0.000670244 0.313231 -13.8124 5.9602 4.47162 -13.8094 8.62204 6.0992 -0.0 0.0 -0.0 3.33978 22.3878 7.2882 -11.2166 -9.04214 70.4087 0.603619 -16.6476 0.0883155 -8.27147 -0.363787 0.991987 2.56256 24.5393 25.2071 -0.0 0.0 -0.0 8.72079 1.00286 -17.0654 -3.70929 6.1666 -66.9146 1.65118 39.2783 -0.589267 -55.8911 4.77663 -4.955 -0.00872586 -9.55457 -3.90563 0.0 0.0 0.0 18.6331 -10.4855 -0.949403 -9.28333 0.269483 1.39766 1.73889 29.2589 -0.271256 -21.8569 0.0 0.0 -0.0 0.0 -0.0 -14.8808 9.40698 3.70501 -6.01778 -0.200579 -0.901348 27.1793 1.60433 3.61449 -7.26198 0.0 0.0 0.0 0.0 0.0 
2154.14 679.742 -558.807 90.0 -86.8307 90.0 1.38005 -0.061961 0.202956 1.38007 -0.07475 0.198602 1.37981 -0.110492 0.181168 1.37977 -0.080493 0.196344 -13.348 5.15021 3.88709 -13.3421 7.39195 5.26251 -0.0 0.0 -0.0 4.28242 22.4318 8.62551 -9.96431 -6.28696 69.264 0.584098 -16.1377 0.0828062 -8.07546 -0.35352 0.969117 2.44519 24.4763 24.442 -0.0 0.0 -0.0 8.37013 -0.443294 -16.3206 -4.28793 5.27253 -68.3007 1.56348 37.7552 -0.534646 -54.9215 4.65878 -4.91523 0.130576 -5.53158 -3.16809 0.0 0.0 0.0 17.7038 -7.46468 -0.968267 -9.14884 0.267204 1.37715 1.34821 28.6162 -0.209614 -22.4353 0.0 0.0 -0.0 0.0 -0.0 -14.9147 9.55209 3.82172 -6.86953 -0.221278 -1.03042 25.1595 -0.373187 3.36921 -8.26108 0.0 0.0 0.0 0.0 0.0 
2162.25 682.323 -562.664 90.0001 -87.0251 90.0001 1.43165 -0.0493244 0.0433322 1.43165 -0.0519818 0.0401057 1.43161 -0.0585248 0.029756 1.43161 -0.0530909 0.0386254 -14.5724 5.49905 5.0459 -14.5444 7.4745 6.54932 -0.0 0.0 -0.0 5.39204 22.2327 10.2208 -9.19191 -6.95911 67.4764 0.568769 -15.7354 0.0785972 -8.74812 -0.389081 1.04746 2.65631 22.9499 25.4495 -0.0 0.0 -0.0 8.69445 -1.10287 -16.9524 -6.08827 4.48617 -67.3162 1.47987 36.2422 -0.484323 -55.7983 4.76532 -4.95128 -0.141107 -6.91812 -1.96439 0.0 0.0 0.0 17.2905 -5.93197 -1.11489 -7.38898 0.232958 1.10928 -0.788517 28.0167 0.122695 -23.3757 0.0 0.0 -0.0 0.0 -0.0 -14.8377 9.01917 3.66517 -6.12341 -0.203251 -0.917338 24.0562 -1.35234 3.23485 -9.36791 0.0 0.0 0.0 0.0 0.0 
2186.35 687.784 -571.132 90.0001 -87.0101 90.0001 1.48925 -0.00165596 -0.0692794 1.48926 0.00275582 -0.0692444 1.48925 0.0154976 -0.0675441 1.48925 0.00463578 -0.069144 -13.2459 5.48843 5.36031 -13.1982 7.10761 6.75731 -0.0 0.0 -0.0 6.43921 23.1139 11.6722 -9.08333 -5.03206 65.9375 0.60745 -16.7474 0.0894161 -7.65845 -0.331938 0.920345 2.85176 17.765 25.4492 -0.0 0.0 -0.0 8.29096 -2.62284 -16.0984 -8.62595 5.20903 -67.3977 1.39556 34.6549 -0.435421 -57.5441 4.97901 -5.01818 -0.202711 -4.99054 -0.756134 0.0 0.0 0.0 15.686 -4.42442 -0.691143 -7.66997 0.238978 1.15198 1.43704 28.3261 -0.222966 -21.3187 0.0 0.0 -0.0 0.0 -0.0 -15.7717 8.54103 3.84731 -7.59607 -0.237415 -1.14074 23.7694 -2.23341 3.19681 -10.9264 0.0 0.0 0.0 0.0 0.0 
2204.73 686.104 -580.624 90.0 -86.8653 90.0 1.59845 -0.0299908 -0.28995 1.5985 -0.0114798 -0.291271 1.59856 0.0419645 -0.288461 1.59844 -0.00411899 -0.291468 -12.8723 5.14986 4.57979 -12.8431 6.9102 5.89181 -0.0 0.0 -0.0 7.05052 23.0569 12.557 -9.02814 -4.24412 65.8878 0.680911 -18.6395 0.111745 -6.02073 -0.250638 0.727342 3.44194 17.6059 29.5344 -0.0 0.0 -0.0 8.15263 -3.98726 -15.7781 -9.91483 4.40864 -66.2939 1.27399 32.2545 -0.368389 -56.6979 4.87518 -4.98657 -0.325048 -1.87725 1.36974 0.0 0.0 0.0 13.6166 -3.2757 -0.457699 -6.85509 0.220943 1.02823 6.34205 28.4635 -0.972967 -20.0714 0.0 0.0 -0.0 0.0 -0.0 -15.9408 8.42674 4.1272 -9.79364 -0.277689 -1.47554 22.8118 -1.83751 3.08492 -11.7482 0.0 0.0 0.0 0.0 0.0 
2214.41 687.56 -588.389 90.0001 -87.2802 90.0001 1.70131 -0.220766 -0.438766 1.7014 -0.192399 -0.451924 1.70295 -0.107414 -0.479286 1.70267 -0.181759 -0.456308 -12.8412 5.17498 4.31409 -12.8204 7.12231 5.64435 -0.0 0.0 -0.0 7.77396 20.8463 13.8582 -8.34726 -2.9296 65.84 0.715282 -19.5108 0.122979 -4.33874 -0.17293 0.526819 3.29298 15.1551 27.8151 -0.0 0.0 -0.0 8.2041 -4.4041 -15.861 -10.8818 3.47635 -65.4936 1.17977 30.302 -0.319464 -58.0724 5.04404 -5.03713 -0.363877 -1.38055 1.83991 0.0 0.0 0.0 13.3905 -2.40338 -0.11824 -6.83376 0.220448 1.02499 8.73143 27.4994 -1.32244 -19.7535 0.0 0.0 -0.0 0.0 -0.0 -14.4389 9.49552 4.17415 -11.4191 -0.299201 -1.72402 19.2966 -3.20246 2.64949 -13.0033 0.0 0.0 0.0 0.0 0.0 
2226.35 691.005 -596.782 80.415 -86.8569 81.9959 1.70931 -0.321138 -0.761838 1.70959 -0.272011 -0.780727 1.71336 -0.126348 -0.817042 1.71252 -0.253795 -0.786837 -13.539 4.68365 4.66747 -13.5026 6.03695 5.87199 -0.0 0.0 -0.0 8.1353 21.8411 14.2902 -7.31846 -1.64553 65.9202 0.757933 -20.579 0.137598 -3.18635 -0.123109 0.388174 3.68363 14.2123 30.3889 -0.0 0.0 -0.0 8.13522 -4.62212 -15.7189 -12.5292 2.54609 -64.7284 1.03182 27.0725 -0.248416 -57.4833 4.97153 -5.01596 -0.403225 0.812681 3.04229 0.0 0.0 0.0 11.2868 -1.84593 -0.208973 -3.96261 0.142749 0.591264 7.0867 28.7968 -1.08736 -18.9086 0.0 0.0 -0.0 0.0 -0.0 -13.5654 8.02138 4.22549 -13.9731 -0.31874 -2.11535 20.2593 -4.28883 2.7661 -13.3224 0.0 0.0 0.0 0.0 0.0 
2246.14 695.46 -603.073 86.5997 -86.5182 88.567 1.75485 -0.179384 -0.970854 1.75536 -0.117245 -0.9803 1.7574 0.0612186 -0.985386 1.75606 -0.0951654 -0.982689 -13.2957 4.99625 4.39788 -13.2718 6.77547 5.69766 -0.0 0.0 -0.0 8.14713 20.912 14.421 -6.813 -1.93197 66.5377 0.84134 -22.625 0.16831 -1.17903 -0.0430314 0.144414 3.90583 14.8712 32.2283 -0.0 0.0 -0.0 7.79471 -6.05796 -15.0091 -13.2539 1.54239 -64.0877 0.84377 22.6837 -0.169246 -56.9221 4.90264 -4.99509 -0.528332 2.8717 4.76984 0.0 0.0 0.0 9.25637 -2.21577 -0.24427 -7.05469 0.225524 1.05852 14.9976 27.2891 -2.22284 -18.3376 0.0 0.0 -0.0 0.0 -0.0 -13.2049 8.59285 4.60705 -15.5928 -0.322086 -2.36385 17.6549 -5.5817 2.437 -14.2547 0.0 0.0 0.0 0.0 0.0 
2264.77 695.503 -613.479 86.518 -86.4964 88.9526 1.77334 -0.201248 -1.20325 1.77414 -0.12428 -1.21361 1.77681 0.09591 -1.21618 1.77476 -0.0973525 -1.21607 -13.1922 4.29029 3.42733 -13.183 6.02663 4.55609 -0.0 0.0 -0.0 8.18881 19.6342 14.6353 -6.88132 -3.48027 67.8679 0.904652 -24.1387 0.193438 0.703845 0.0242674 -0.0866161 4.39935 17.4103 36.6616 -0.0 0.0 -0.0 7.3713 -5.8052 -14.2189 -13.8801 0.00954348 -63.5037 0.654495 17.9637 -0.10345 -56.1638 4.80989 -4.96582 -0.751064 3.69331 6.63105 0.0 0.0 0.0 8.13898 -1.92724 0.388823 -8.30553 0.251821 1.24866 19.337 26.9577 -2.81359 -18.6124 0.0 0.0 -0.0 0.0 -0.0 -12.9361 9.14063 5.11918 -17.0294 -0.319176 -2.58423 19.0809 -5.1868 2.61773 -15.6871 0.0 0.0 0.0 0.0 0.0 
2275.33 694.282 -623.662 93.8253 -86.0639 95.7463 1.78496 -0.261307 -1.48932 1.78617 -0.16602 -1.50292 1.79059 0.106495 -1.50831 1.78744 -0.133023 -1.5062 -13.839 4.9356 3.54172 -13.8414 7.23986 4.90032 -0.0 0.0 -0.0 8.59206 18.5617 15.4027 -6.15604 -2.83723 68.431 0.966801 -25.5905 0.219572 3.00455 0.0961289 -0.371679 4.52238 16.845 37.5094 -0.0 0.0 -0.0 7.62244 -5.93568 -14.6884 -14.3548 -1.22697 -61.9447 0.463238 12.9244 -0.0524698 -55.6324 4.74512 -4.94458 -0.810362 5.00065 7.60216 0.0 0.0 0.0 7.24599 -1.97619 0.350274 -9.21201 0.268281 1.38678 24.509 27.0229 -3.48977 -17.0036 0.0 0.0 -0.0 0.0 -0.0 -12.5596 8.81549 5.43373 -18.1163 -0.313302 -2.75088 19.1509 -6.08186 2.62538 -20.5479 0.0 0.0 0.0 0.0 0.0 
2287.39 695.211 -624.862 81.0119 -86.0801 84.4633 1.89339 -0.445399 -1.68659 1.89491 -0.33719 -1.71151 1.90508 -0.0280009 -1.74417 1.90096 -0.303067 -1.71787 -13.778 4.55269 3.15522 -13.7825 6.74168 4.41074 -0.0 0.0 -0.0 9.02556 16.0713 16.4185 -5.47429 -2.61825 68.2829 0.990727 -26.1402 0.23001 5.19289 0.153802 -0.645253 4.72585 18.5572 39.533 -0.0 0.0 -0.0 7.5812 -7.88529 -14.5302 -14.9527 -1.42771 -60.8614 0.339733 9.55321 -0.0283886 -55.5477 4.73481 -4.94114 -0.946199 4.98946 8.52188 0.0 0.0 0.0 6.44715 -2.76264 0.426284 -9.79133 0.277654 1.47518 27.1972 26.2952 -3.80637 -16.592 0.0 0.0 -0.0 0.0 -0.0 -12.1707 8.9605 5.36944 -18.7914 -0.308062 -2.85434 25.0163 -5.65163 3.3331 -24.7544 0.0 0.0 0.0 0.0 0.0 
2295.84 694.959 -629.603 79.3391 -85.9471 83.0688 1.95818 -0.528238 -1.81631 1.95992 -0.411612 -1.84622 1.97329 -0.0796122 -1.88986 1.9685 -0.37703 -1.85359 -14.4809 4.23163 2.9409 -14.4878 6.31076 4.14695 -0.0 0.0 -0.0 9.3517 14.0462 17.2208 -4.63984 -2.74423 68.208 1.02421 -26.901 0.244961 6.82057 0.189897 -0.850034 4.95907 20.0979 41.7634 -0.0 0.0 -0.0 7.53626 -9.16331 -14.3864 -15.3645 -1.5429 -59.7125 0.264223 7.45712 -0.0172188 -55.3548 4.71136 -4.93325 -1.03039 5.04401 9.11992 0.0 0.0 0.0 5.81138 -3.26005 0.420956 -10.3511 0.285861 1.56068 29.2935 25.7785 -4.04421 -16.2387 0.0 0.0 -0.0 0.0 -0.0 -10.8644 8.77485 5.48679 -22.0594 -0.26549 -3.3539 30.1104 -4.35615 3.9017 -27.8095 0.0 0.0 0.0 0.0 0.0 
2306.63 697.243 -631.237 75.2543 -86.37 79.1064 2.04908 -0.624776 -1.86752 2.05088 -0.504697 -1.90348 2.06775 -0.164435 -1.96235 2.06269 -0.472231 -1.91179 -15.321 3.99202 3.16351 -15.3217 5.77913 4.32423 -0.0 0.0 -0.0 9.66352 12.5001 17.9562 -4.02581 -2.98964 67.7515 1.04702 -27.4135 0.255374 7.93762 0.211295 -0.99112 5.13705 21.1651 43.4569 -0.0 0.0 -0.0 7.44881 -10.7996 -14.1423 -15.7061 -1.78279 -59.035 0.246423 6.95987 -0.0149853 -55.1789 4.69 -4.92598 -1.10167 5.11703 9.63889 0.0 0.0 0.0 5.28499 -3.61276 0.528002 -9.85768 0.278671 1.48531 30.6181 25.4907 -4.19076 -16.1164 0.0 0.0 -0.0 0.0 -0.0 -9.27361 8.64921 5.30784 -24.2446 -0.221157 -3.68628 33.0127 -3.66276 4.20437 -30.0719 0.0 0.0 0.0 0.0 0.0 
2316.35 699.299 -631.377 72.9067 -86.2101 76.9494 1.84726 -0.717133 -1.95445 1.84919 -0.591339 -1.9961 1.87007 -0.226482 -2.06946 1.86452 -0.550407 -2.00777 -14.6889 4.14587 2.74074 -14.6996 6.28128 3.94193 -0.0 0.0 -0.0 9.82574 11.1295 18.4089 -3.14399 -3.28976 67.6201 1.06774 -27.8747 0.264984 8.80992 0.226089 -1.10156 5.25141 21.9306 44.5629 -0.0 0.0 -0.0 7.22668 -11.7598 -13.6971 -16.7208 -2.28647 -59.0662 0.238916 6.74982 -0.0140893 -55.0997 4.68039 -4.92268 -1.12799 5.24185 9.87373 0.0 0.0 0.0 4.85017 -3.96886 0.519868 -10.7741 0.291509 1.62535 31.3851 25.2005 -4.27074 -15.931 0.0 0.0 -0.0 0.0 -0.0 -7.68881 8.59482 4.72542 -25.7335 -0.183699 -3.9117 36.2617 -2.94603 4.5235 -31.2778 0.0 0.0 0.0 0.0 0.0 
2320.77 701.86 -633.566 75.0888 -86.336 79.2092 1.80581 -0.632938 -2.00394 1.80791 -0.504166 -2.04014 1.82612 -0.131193 -2.09739 1.82027 -0.46072 -2.05038 -15.1272 4.17098 3.60549 -15.1194 5.8462 4.78974 -0.0 0.0 -0.0 10.0013 9.5223 18.9125 -1.87627 -3.62741 67.5275 1.09191 -28.4081 0.276385 10.0558 0.244299 -1.25967 5.31105 23.1372 45.2345 -0.0 0.0 -0.0 6.99631 -13.9343 -13.1773 -17.4364 -2.0134 -58.9232 0.350299 9.84458 -0.0301686 -55.221 4.69511 -4.92773 -1.20569 5.40228 10.4765 0.0 0.0 0.0 4.24498 -4.64239 0.395399 -9.83045 0.278254 1.48116 28.3409 25.5488 -3.92606 -15.8232 0.0 0.0 -0.0 0.0 -0.0 -5.82673 7.33891 4.37287 -26.0078 -0.176158 -3.95313 34.8033 -3.42609 4.3824 -32.7026 0.0 0.0 0.0 0.0 0.0 
